<mxfile host="app.diagrams.net" modified="2024-06-24T00:50:04.440Z" agent="Mozilla/5.0 (X11; Ubuntu; Linux x86_64; rv:127.0) Gecko/20100101 Firefox/127.0" version="24.6.2" etag="mmY9K1Ers9lkInt4E45B" type="github">
  <diagram name="Page-1" id="MDSdwSTvWFFIY6Zn-Dde">
    <mxGraphModel>
      <root>
        <mxCell id="0" />
        <mxCell id="1" parent="0" />
      </root>
    </mxGraphModel>
  </diagram>
</mxfile>
